<svg width="72" height="128" viewBox="0 0 72 128" fill="none" xmlns="http://www.w3.org/2000/svg">
<g clip-path="url(#clip0_1_2)">
<g filter="url(#filter0_d_1_2)">
<path d="M8.73094 62.9271C8.72803 61.7632 9.03614 60.7523 9.57633 59.6032C10.9797 56.6177 15.2045 52.1864 28.148 50.9291C41.3087 49.6507 49.8242 53.365 52.7093 55.2506C52.7093 55.2506 54.659 56.1145 53.4894 54.7791C53.4894 54.7791 45.2239 47.0792 29.0058 47.0006C12.7873 46.9219 -0.0777016 55.1719 0.000353304 63.4998C-0.0777016 71.8289 12.7873 80.0781 29.0058 79.9994C45.2239 79.9216 53.4894 72.2218 53.4894 72.2218C54.659 70.8863 52.7093 71.7502 52.7093 71.7502C49.8238 73.6359 41.272 77.6881 28.148 76.0713C14.2571 74.3613 9.85468 70.5263 9.03986 66.6085C8.82382 65.8528 8.72803 63.7895 8.73094 62.9271Z" fill="#7167FF"/>
<path d="M17.8265 65.7988L19.4801 66.2144C19.1335 67.5656 18.5084 68.5974 17.6049 69.3098C16.7071 70.0165 15.6076 70.3699 14.3064 70.3699C12.9596 70.3699 11.863 70.0985 11.0163 69.5558C10.1753 69.0073 9.53321 68.2158 9.08999 67.1812C8.65246 66.1465 8.43369 65.0356 8.43369 63.8483C8.43369 62.5536 8.68087 61.4256 9.17523 60.4645C9.67527 59.4977 10.3827 58.7655 11.2976 58.268C12.2181 57.7648 13.2296 57.5132 14.3319 57.5132C15.582 57.5132 16.6333 57.8298 17.4856 58.463C18.338 59.0963 18.9318 59.9867 19.267 61.1345L17.639 61.5161C17.3492 60.6115 16.9287 59.9528 16.3776 59.5401C15.8264 59.1274 15.1331 58.921 14.2978 58.921C13.3375 58.921 12.5335 59.15 11.8857 59.6079C11.2436 60.0659 10.7918 60.6822 10.5305 61.4567C10.2691 62.2256 10.1384 63.02 10.1384 63.8398C10.1384 64.897 10.2918 65.8214 10.5986 66.613C10.9112 67.3988 11.3942 67.9868 12.0476 68.377C12.7011 68.7671 13.4086 68.9621 14.17 68.9621C15.0962 68.9621 15.8804 68.6964 16.5225 68.1649C17.1646 67.6335 17.5993 66.8448 17.8265 65.7988Z" fill="#7167FF"/>
<path d="M20.2349 65.6547C20.2349 63.9868 20.7009 62.7514 21.6328 61.9486C22.4113 61.2815 23.3602 60.9479 24.4796 60.9479C25.7241 60.9479 26.7412 61.355 27.531 62.1691C28.3209 62.9776 28.7158 64.097 28.7158 65.5274C28.7158 66.6865 28.5396 67.5996 28.1873 68.2667C27.8407 68.9282 27.3321 69.4427 26.6616 69.8102C25.9968 70.1777 25.2695 70.3614 24.4796 70.3614C23.2125 70.3614 22.1868 69.9572 21.4027 69.1487C20.6242 68.3402 20.2349 67.1755 20.2349 65.6547ZM21.8118 65.6547C21.8118 66.808 22.0646 67.6731 22.5704 68.2497C23.0761 68.8208 23.7125 69.1063 24.4796 69.1063C25.2411 69.1063 25.8746 68.8179 26.3804 68.2413C26.8861 67.6646 27.1389 66.7854 27.1389 65.6038C27.1389 64.49 26.8832 63.6476 26.3718 63.0765C25.8661 62.4998 25.2354 62.2115 24.4796 62.2115C23.7125 62.2115 23.0761 62.497 22.5704 63.068C22.0646 63.6391 21.8118 64.5013 21.8118 65.6547Z" fill="#7167FF"/>
<path d="M29.3854 67.4695L30.9026 67.2321C30.9878 67.837 31.2236 68.3006 31.61 68.6229C32.0021 68.9452 32.5476 69.1063 33.2465 69.1063C33.9511 69.1063 34.4739 68.9649 34.8148 68.6823C35.1558 68.3939 35.3262 68.0575 35.3262 67.6731C35.3262 67.3282 35.1757 67.0568 34.8745 66.8589C34.6643 66.7232 34.1415 66.5508 33.3062 66.3416C32.1811 66.0589 31.3998 65.8158 30.9622 65.6123C30.5304 65.4031 30.2008 65.1175 29.9735 64.7557C29.7519 64.3882 29.6411 63.984 29.6411 63.543C29.6411 63.1415 29.732 62.7712 29.9138 62.432C30.1014 62.0871 30.3542 61.8016 30.6724 61.5755C30.9111 61.4002 31.235 61.2532 31.6441 61.1345C32.0589 61.0101 32.5021 60.9479 32.9738 60.9479C33.6841 60.9479 34.3063 61.0496 34.8404 61.2532C35.3802 61.4567 35.778 61.7338 36.0337 62.0843C36.2894 62.4292 36.4656 62.8928 36.5622 63.4751L35.062 63.6787C34.9938 63.215 34.795 62.8532 34.4654 62.5931C34.1415 62.3331 33.6812 62.203 33.0846 62.203C32.38 62.203 31.8771 62.3189 31.5759 62.5507C31.2748 62.7825 31.1242 63.0539 31.1242 63.3649C31.1242 63.5628 31.1867 63.7408 31.3117 63.8992C31.4367 64.0631 31.6327 64.1988 31.8998 64.3062C32.0532 64.3628 32.505 64.4928 33.255 64.6963C34.3404 64.9847 35.0961 65.2221 35.5223 65.4087C35.9541 65.5896 36.2922 65.8554 36.5366 66.2059C36.7809 66.5564 36.9031 66.9918 36.9031 67.5119C36.9031 68.0208 36.7525 68.5013 36.4513 68.9536C36.1559 69.4003 35.7269 69.748 35.1643 69.9968C34.6018 70.2399 33.9653 70.3614 33.255 70.3614C32.0788 70.3614 31.181 70.1183 30.5616 69.6321C29.9479 69.1459 29.5559 68.425 29.3854 67.4695Z" fill="#7167FF"/>
<path d="M38.2034 70.1579V61.1514H39.5757V62.415C39.8598 61.974 40.2377 61.6207 40.7093 61.355C41.181 61.0836 41.7179 60.9479 42.3203 60.9479C42.9908 60.9479 43.5391 61.0864 43.9653 61.3634C44.3972 61.6405 44.7012 62.0278 44.8773 62.5253C45.5933 61.4737 46.5252 60.9479 47.673 60.9479C48.5708 60.9479 49.2612 61.1966 49.7442 61.6942C50.2272 62.1861 50.4687 62.9465 50.4687 63.9755V70.1579H48.943V64.4843C48.943 63.8737 48.8919 63.4355 48.7896 63.1698C48.693 62.8984 48.514 62.6808 48.2526 62.5168C47.9912 62.3528 47.6844 62.2709 47.3321 62.2709C46.6956 62.2709 46.1672 62.4829 45.7467 62.9069C45.3262 63.3253 45.116 63.9981 45.116 64.9253V70.1579H43.5817V64.3062C43.5817 63.6278 43.4567 63.1189 43.2067 62.7797C42.9567 62.4405 42.5476 62.2709 41.9793 62.2709C41.5475 62.2709 41.1469 62.3839 40.7775 62.6101C40.4139 62.8362 40.1496 63.167 39.9848 63.6023C39.8201 64.0377 39.7377 64.6652 39.7377 65.485V70.1579H38.2034Z" fill="#7167FF"/>
<path d="M51.7264 66.8589L54.0448 66.579C54.1187 67.167 54.3176 67.6165 54.6415 67.9275C54.9653 68.2384 55.3574 68.3939 55.8177 68.3939C56.312 68.3939 56.7269 68.2073 57.0621 67.8342C57.4031 67.461 57.5735 66.9579 57.5735 66.3246C57.5735 65.7253 57.4116 65.2504 57.0877 64.8999C56.7638 64.5493 56.3689 64.3741 55.9029 64.3741C55.5961 64.3741 55.2296 64.4334 54.8034 64.5522L55.0676 62.6101C55.7154 62.6271 56.2098 62.4885 56.5507 62.1945C56.8916 61.8949 57.0621 61.4991 57.0621 61.0072C57.0621 60.5889 56.9371 60.2553 56.6871 60.0065C56.4371 59.7578 56.1046 59.6334 55.6898 59.6334C55.2807 59.6334 54.9312 59.7747 54.6415 60.0574C54.3517 60.3401 54.1755 60.7528 54.113 61.2956L51.9054 60.9224C52.0588 60.1705 52.289 59.5712 52.5958 59.1245C52.9083 58.6722 53.3402 58.3189 53.8914 58.0645C54.4483 57.8044 55.0705 57.6743 55.758 57.6743C56.9343 57.6743 57.8775 58.0475 58.5878 58.7938C59.1731 59.4044 59.4657 60.0942 59.4657 60.8631C59.4657 61.9543 58.8662 62.8249 57.6673 63.4751C58.3833 63.6278 58.9543 63.9698 59.3805 64.5013C59.8124 65.0327 60.0283 65.6744 60.0283 66.4264C60.0283 67.5176 59.6277 68.4476 58.8265 69.2165C58.0253 69.9855 57.028 70.3699 55.8347 70.3699C54.704 70.3699 53.7664 70.0476 53.022 69.4031C52.2776 68.7529 51.8458 67.9049 51.7264 66.8589Z" fill="#7167FF"/>
<path d="M61.5247 57.7252H66.1359C67.1757 57.7252 67.9684 57.8044 68.5139 57.9627C69.2469 58.1775 69.8748 58.5592 70.3976 59.1076C70.9204 59.656 71.3181 60.3288 71.5909 61.126C71.8636 61.9175 72 62.8956 72 64.0603C72 65.0836 71.8722 65.9656 71.6164 66.7063C71.3039 67.6109 70.8579 68.343 70.2783 68.9028C69.8407 69.3268 69.2498 69.6575 68.5054 69.895C67.9485 70.0703 67.2041 70.1579 66.2722 70.1579H61.5247V57.7252ZM64.0476 59.8284V68.0632H65.9313C66.6359 68.0632 67.1445 68.0236 67.457 67.9444C67.8661 67.8427 68.2042 67.6702 68.4713 67.4271C68.744 67.184 68.9656 66.7854 69.1361 66.2313C69.3066 65.6716 69.3918 64.9112 69.3918 63.95C69.3918 62.9889 69.3066 62.2511 69.1361 61.7366C68.9656 61.2221 68.727 60.8207 68.4201 60.5323C68.1133 60.244 67.7241 60.0489 67.2524 59.9472C66.9001 59.868 66.2097 59.8284 65.1812 59.8284H64.0476Z" fill="#7167FF"/>
</g>
</g>
<defs>
<filter id="filter0_d_1_2" x="-3" y="44" width="80" height="41" filterUnits="userSpaceOnUse" color-interpolation-filters="sRGB">
<feFlood flood-opacity="0" result="BackgroundImageFix"/>
<feColorMatrix in="SourceAlpha" type="matrix" values="0 0 0 0 0 0 0 0 0 0 0 0 0 0 0 0 0 0 127 0" result="hardAlpha"/>
<feOffset dx="1" dy="1"/>
<feGaussianBlur stdDeviation="2"/>
<feComposite in2="hardAlpha" operator="out"/>
<feColorMatrix type="matrix" values="0 0 0 0 0 0 0 0 0 0 0 0 0 0 0 0 0 0 0.25 0"/>
<feBlend mode="normal" in2="BackgroundImageFix" result="effect1_dropShadow_1_2"/>
<feBlend mode="normal" in="SourceGraphic" in2="effect1_dropShadow_1_2" result="shape"/>
</filter>
<clipPath id="clip0_1_2">
<rect width="72" height="128" fill="white"/>
</clipPath>
</defs>
</svg>
